PathFileType	4	(X/Y/Z)	s10c0302.trc
DataRate	CameraRate	NumFrames	NumMarkers	Units	OrigDataRate	OrigDataStartFrame	OrigNumFrames
200	200	4	50	mm	200	1750	2000
Frame#	Time	racr			lacr			c7			jug			rlel			rdr			llel			ldr			s2			lic			ric			lasi			rasi			rpsi			lpsi			rgt			lgt			rth1			rth2			rth3			rth4			rlfc			rmfc			rsh1			rsh2			rsh3			rsh4			rlmal			rmmal			rcal			rtoe			rmt5			lth1			lth2			lth4			lth3			llfc			lmfc			llmal			lmmal			lcal			lmt5			lsh1			lsh2			lsh3			lsh4			ltoe			SBIKE			LBIKE			RBIKE			
		X1	Y1	Z1	X2	Y2	Z2	X3	Y3	Z3	X4	Y4	Z4	X5	Y5	Z5	X6	Y6	Z6	X7	Y7	Z7	X8	Y8	Z8	X9	Y9	Z9	X10	Y10	Z10	X11	Y11	Z11	X12	Y12	Z12	X13	Y13	Z13	X14	Y14	Z14	X15	Y15	Z15	X16	Y16	Z16	X17	Y17	Z17	X18	Y18	Z18	X19	Y19	Z19	X20	Y20	Z20	X21	Y21	Z21	X22	Y22	Z22	X23	Y23	Z23	X24	Y24	Z24	X25	Y25	Z25	X26	Y26	Z26	X27	Y27	Z27	X28	Y28	Z28	X29	Y29	Z29	X30	Y30	Z30	X31	Y31	Z31	X32	Y32	Z32	X33	Y33	Z33	X34	Y34	Z34	X35	Y35	Z35	X36	Y36	Z36	X37	Y37	Z37	X38	Y38	Z38	X39	Y39	Z39	X40	Y40	Z40	X41	Y41	Z41	X42	Y42	Z42	X43	Y43	Z43	X44	Y44	Z44	X45	Y45	Z45	X46	Y46	Z46	X47	Y47	Z47	X48	Y48	Z48	X49	Y49	Z49	X50	Y50	Z50	
1750	8.7500	530.602455	1333.516307	-150.227928	557.972379	1246.607170	-461.689320	532.865536	1327.017374	-309.199431	526.326434	1187.802371	-269.951360	563.805694	1080.534471	-44.034769	644.480867	865.105120	-63.089091	480.360362	984.974850	-551.483759	624.593206	886.225838	-419.068343	3.756231	1144.883271	-325.739606	185.888738	1080.716221	-436.596995	165.209014	1162.073995	-172.683274	186.477184	995.909383	-386.536884	145.976406	1091.910678	-153.897959	49.204968	1209.886143	-280.162042	73.753841	1173.986243	-385.155065	33.991470	1117.758822	-107.359727	58.634417	969.053559	-462.393974	96.886954	1016.813617	-33.163113	160.012089	956.189001	-13.301563	181.492086	883.901459	24.410111	190.199227	968.945166	-32.365567	223.550251	795.116243	59.295398	204.234229	730.455762	-44.007631	107.079636	804.333702	87.087210	29.197859	761.964807	94.215391	-56.582392	762.136715	85.796805	39.137695	725.836653	86.301683	-149.628186	747.366177	77.905267	-135.207460	684.114073	22.363595	-162.807737	758.798117	8.416694	-215.070849	570.059697	152.608582	-230.107095	673.447711	150.859070	87.620090	856.583666	-461.408351	132.402393	785.403702	-438.243349	165.681888	798.127306	-427.918743	133.607564	698.507602	-419.400016	163.586886	598.766134	-389.139017	152.522189	597.730378	-278.239508	46.786212	240.232219	-373.099707	69.478369	237.502906	-296.090300	-7.797666	214.081680	-332.104082	153.868606	143.913561	-401.047955	103.754639	487.195576	-419.545631	112.793489	402.481186	-401.472835	76.174760	321.117647	-396.008716	139.149116	402.318032	-373.812335	241.361095	161.351947	-346.367964	-217.775298	832.082305	-214.561179	-103.851548	80.418144	-418.227255	-104.034467	80.518344	-18.471646	
1751	8.7550	530.058827	1333.293065	-150.899084	557.757411	1246.309195	-462.255544	532.420929	1326.747637	-310.054998	525.877107	1187.540711	-270.612239	563.573845	1080.443845	-44.615706	644.699359	865.252869	-62.924550	480.493876	984.615301	-552.008884	624.546215	886.154765	-419.284459	3.396273	1144.882974	-326.510081	185.337324	1080.377251	-437.005985	164.784987	1162.544693	-173.363512	185.943466	995.741801	-386.700406	145.451335	1092.371889	-154.379210	48.620439	1209.808690	-280.482347	73.166261	1173.434054	-385.477102	33.356194	1118.338174	-108.036687	58.160819	968.940717	-462.541019	96.003842	1017.451716	-33.472122	158.979819	956.818322	-13.267848	180.400881	884.540683	24.618407	189.239991	969.476815	-32.374408	222.394204	795.805025	59.898682	203.011438	730.909574	-43.229664	105.986798	805.246355	87.802155	28.076837	762.881573	95.069710	-57.763952	763.306195	86.754066	37.912753	726.684115	87.128042	-150.795137	748.671651	78.732856	-136.529118	685.198567	23.520239	-164.457952	759.765084	9.261080	-215.586427	571.648305	154.734831	-230.668614	675.019177	152.610755	87.073746	856.546296	-461.620747	131.931268	785.346621	-438.435854	165.221367	798.127921	-428.106029	133.218644	698.477131	-419.574033	163.228102	598.777516	-389.280861	151.914623	597.784515	-278.277756	47.532857	239.997965	-373.015115	70.186898	237.215963	-295.996357	-7.030345	213.704595	-332.092817	154.753534	143.970032	-401.090937	103.927069	486.986818	-419.485397	113.210552	402.334639	-401.379217	76.884877	320.773840	-395.913249	139.540770	402.330207	-373.680772	242.229254	161.458943	-346.273413	-217.763996	832.074908	-214.545841	-103.879836	80.415380	-418.249089	-104.066335	80.486000	-18.500922	
1752	8.7600	529.646476	1333.109473	-151.577513	557.548662	1245.996925	-462.788041	532.022943	1326.438364	-310.755096	525.338755	1187.294485	-271.294031	563.373195	1080.413150	-45.198647	644.949295	865.432349	-62.705914	480.552436	984.302927	-552.497962	624.498003	886.079981	-419.534519	2.946643	1145.057120	-327.392583	184.876457	1080.021908	-437.457396	164.329063	1162.869069	-174.069163	185.407562	995.582780	-386.952917	144.933357	1092.731830	-154.807658	48.308447	1210.238519	-281.833820	72.716505	1173.208738	-386.185464	32.750089	1118.903924	-108.691929	57.639013	968.881964	-462.665752	95.184129	1017.999475	-33.727079	158.058391	957.361865	-13.278938	179.277763	885.388505	24.933577	188.357400	970.037552	-32.334450	221.285418	796.435315	60.458316	201.656854	731.277380	-42.265562	104.898475	806.028529	88.464749	26.888461	763.850924	95.783208	-58.881184	764.310144	87.521497	36.650250	727.661436	87.852616	-151.975993	750.022161	79.444737	-137.797534	686.243445	24.619233	-166.120683	760.683161	9.992490	-215.986795	573.357180	156.831766	-231.298132	676.710945	154.250103	86.572274	856.484656	-461.769799	131.471325	785.355559	-438.672948	164.761736	798.124721	-428.321487	132.813406	698.457361	-419.723452	162.930886	598.757447	-389.409004	151.462301	597.978425	-278.371633	48.172567	239.847248	-373.012246	70.829756	237.028526	-295.995762	-6.333018	213.435710	-332.095903	155.529532	144.000259	-401.072256	104.068602	486.862273	-419.457697	113.590097	402.118382	-401.231192	77.517087	320.413855	-395.809172	139.927349	402.313883	-373.557367	242.985122	161.497699	-346.330424	-217.768574	832.072655	-214.562935	-103.898939	80.411327	-418.247356	-104.083413	80.482572	-18.506328	
1753	8.7650	529.181718	1332.951288	-152.326030	557.358835	1245.646825	-463.278983	531.547793	1326.145529	-311.468137	524.906291	1187.032077	-271.884166	563.230183	1080.368575	-45.807932	645.225133	865.638407	-62.440807	480.567156	983.983613	-553.056920	624.434956	886.035121	-419.817277	2.562886	1145.078868	-327.989935	184.407634	1079.789086	-437.882576	163.670922	1163.104431	-174.857915	184.828069	995.435530	-387.132844	144.553149	1093.215295	-155.126549	47.947289	1210.286086	-282.713712	72.270418	1173.080917	-386.830801	32.165598	1119.472155	-109.335164	57.062728	968.853411	-462.775265	94.356504	1018.816498	-33.970168	157.112419	958.024169	-13.275537	178.282746	885.926044	25.160689	187.447669	970.534059	-32.376590	220.152263	797.123279	60.997745	200.490744	731.491888	-41.350986	103.837301	806.825238	89.148773	25.710422	764.773658	96.501216	-60.088062	765.398538	88.318118	35.470255	728.506201	88.618792	-153.135418	751.235516	80.022085	-139.013352	687.248282	25.661289	-167.737092	761.556378	10.591637	-216.432874	574.901803	158.775792	-231.862622	678.140403	155.725299	86.059048	856.410588	-461.949768	131.006687	785.314043	-438.865167	164.319398	798.076547	-428.515507	132.326120	698.398828	-419.817553	162.706005	598.718665	-389.548636	150.864701	597.895320	-278.420441	48.710042	239.661625	-373.040646	71.401089	236.994820	-296.028713	-5.746243	213.231920	-332.051618	156.213346	144.026502	-401.073086	104.198890	486.694084	-419.441001	113.929394	401.894616	-401.121589	78.060478	320.221170	-395.676385	140.220616	402.217735	-373.459151	243.629977	161.620740	-346.313193	-217.763549	832.070259	-214.530016	-103.886551	80.441971	-418.278972	-104.122381	80.488780	-18.542341	
